<svg id="Capa_1" enable-background="new 0 0 512 512" height="512" viewBox="0 0 512 512" width="512" xmlns="http://www.w3.org/2000/svg"><g><g><g><g><g><g><g><g id="XMLID_2662_"><g id="XMLID_2663_"><g id="XMLID_2664_"><g id="XMLID_2665_"><g id="XMLID_2666_"><g id="XMLID_2667_"><g id="XMLID_2668_"><g id="XMLID_2669_"><g id="XMLID_2670_"><g id="XMLID_2671_"><g id="XMLID_2672_"><g id="XMLID_2701_"><g id="XMLID_2758_"><g id="XMLID_2759_"><circle id="XMLID_2981_" cx="256" cy="256" fill="#9ae3ff" r="256"/></g></g></g></g></g></g></g></g></g></g></g></g></g></g></g></g></g></g></g></g><path d="m267.897 511.728c135.862-6.215 244.103-118.331 244.103-255.728 0-13.344-1.021-26.449-2.989-39.243l-78.433-78.433-137.754 45.462-49.704-49.704-70.341 68.482-145.265 68.78z" fill="#49b4ff"/><g><path d="m381.65 104.471c-23.894-8.192-49.702-7.639-72.672 1.56-20.927 8.381-39.016 23.6-52.978 44.428-13.962-20.829-32.051-36.048-52.978-44.428-22.968-9.2-48.777-9.752-72.672-1.56-45.437 15.582-87.379 65.445-72.094 138.103 5.763 27.395 19.691 54.909 41.396 81.775 17.103 21.17 39.074 42.02 65.303 61.969 44.434 33.796 85.286 53.139 87.004 53.946l4.04 1.898 4.04-1.898c1.718-.807 42.57-20.151 87.004-53.946 26.229-19.95 48.2-40.799 65.303-61.969 21.705-26.867 35.633-54.38 41.396-81.775 15.286-72.659-26.655-122.522-72.092-138.103z" fill="#ff3666"/><path d="m453.743 242.571c-5.767 27.394-19.691 54.907-41.398 81.768-17.104 21.173-39.067 42.029-65.296 61.978-44.439 33.793-85.284 53.149-87.002 53.939l-4.049 1.916v-291.718c13.964-20.817 32.055-36.045 52.971-44.419 22.97-9.204 48.784-9.757 72.683-1.56 45.427 15.582 87.378 65.433 72.091 138.096z" fill="#d80f49"/></g><g><path d="m193.214 341.899-29.995-98.678-17.215 28.123h-118.491v-30h101.681l43.304-70.748 29.695 97.688 16.274-27.284h58.782l40.663-73.857 25.307 93.439 12.321-19.582h128.08v30h-111.512l-39.952 63.498-23.785-87.824-13.393 24.326h-59.474z" fill="#fff"/></g><g><path d="m483.62 241v30h-111.51l-39.95 63.5-23.79-87.83-13.39 24.33h-38.98v-30h21.25l40.66-73.86 25.31 93.44 12.32-19.58z" fill="#d3d3d3"/></g></g></svg>