<svg id="Capa_1" enable-background="new 0 0 512 512" height="512" viewBox="0 0 512 512" width="512" xmlns="http://www.w3.org/2000/svg"><g><g><g><g><g><g><g><g id="XMLID_890_"><g id="XMLID_891_"><g id="XMLID_892_"><g id="XMLID_893_"><g id="XMLID_894_"><g id="XMLID_895_"><g id="XMLID_896_"><g id="XMLID_897_"><g id="XMLID_1191_"><g id="XMLID_1192_"><g id="XMLID_1193_"><g id="XMLID_1194_"><g id="XMLID_1195_"><g id="XMLID_1196_"><circle id="XMLID_1197_" cx="256" cy="256" fill="#2b2a78" r="256"/></g></g></g></g></g></g></g></g></g></g></g></g></g></g></g></g></g></g></g></g><path d="m512 256c0-33.287-6.353-65.09-17.913-94.263l-91.517-91.517-293.137 371.558 52.311 52.311c29.171 11.559 60.972 17.911 94.256 17.911 141.385 0 256-114.615 256-256z" fill="#03002c"/><path d="m109.433 70.222h293.135v371.557h-293.135z" fill="#fff"/><path d="m256 70.22h146.57v371.56h-146.57z" fill="#d3d3d3"/><g><g><path d="m339.701 153.852c-54.795 0-75.743 34.939-83.701 63.764-7.959-28.825-28.906-63.764-83.701-63.764 0 0-22.856 109.362 83.701 105.018 106.557 4.344 83.701-105.018 83.701-105.018z" fill="#ff3666"/><path d="m322.264 236.838c-12.699 13.83-33.282 23.376-66.264 22.032v-41.254c5.643-20.436 17.813-43.942 43.942-55.893 10.726-4.91 23.811-7.872 39.759-7.872 0 0 10.899 52.14-17.437 82.987z" fill="#d80f49"/></g><path d="m256 111.177s-98.506 78.991 0 147.693z" fill="#f8a"/><path d="m256 111.177s98.506 78.991 0 147.693z" fill="#ff508a"/></g><g><g><path d="m190.663 304.334h130.675v30h-130.675z" fill="#f99a48"/></g></g><g><g><path d="m256 304.33h65.34v30h-65.34z" fill="#e86e00"/></g></g><g><g><path d="m166.448 367.667h179.103v30h-179.103z" fill="#f99a48"/></g></g><g><g><path d="m256 367.67h89.55v30h-89.55z" fill="#e86e00"/></g></g></g></svg>