<svg id="Capa_1" enable-background="new 0 0 512 512" height="512" viewBox="0 0 512 512" width="512" xmlns="http://www.w3.org/2000/svg"><g><g><g><g><g><g><g id="XMLID_803_"><g id="XMLID_898_"><g id="XMLID_914_"><g id="XMLID_925_"><g id="XMLID_926_"><g id="XMLID_927_"><g id="XMLID_928_"><g id="XMLID_929_"><g id="XMLID_930_"><g id="XMLID_1049_"><g id="XMLID_1050_"><g id="XMLID_1051_"><g id="XMLID_1052_"><g id="XMLID_1126_"><circle id="XMLID_1127_" cx="256" cy="256" fill="#ffce67" r="256"/></g></g></g></g></g></g></g></g></g></g></g></g></g></g></g></g></g></g></g><path d="m512 256c0-17.628-1.782-34.841-5.175-51.466l-83.965-85.108-329.624 277.982 108.919 108.919c17.361 3.717 35.374 5.673 53.845 5.673 141.385 0 256-114.615 256-256z" fill="#f99a48"/><g><g><path d="m370.581 249.084c0 61.364 29.274 122.278-18.458 153.613-28.512-6.95-233.083-151.277-233.083-151.277s36.145-132.685 84.535-161.974c1.316-.413 2.004-1.45 3.333-1.832 15.42-4.436 32.249-6.978 49.093-6.978-.001-.001 114.58 71.594 114.58 168.448z" fill="#2b2a78"/><g><g><path d="m431.365 256c0 58.616-28.754 110.502-72.922 142.345-2.07 1.499-4.186 2.945-6.318 4.355-10.165-2.481-42.695-10.808-80.356-24.631-5.176-1.901-10.442-3.9-15.769-6.015v-291.419c96.857 0 175.365 78.508 175.365 175.365z" fill="#03002c"/></g></g><path d="m358.443 398.347c-2.073 1.499-4.183 2.943-6.32 4.35-27.605 18.129-60.633 28.669-96.122 28.669-96.853 0-175.365-78.512-175.365-175.365 0-78.558 51.647-145.049 122.848-167.36 1.138-.361 2.277-.703 3.424-1.027l-.49.361c-20.155 14.908-31.64 35.573-35.156 57.172-7.801 47.955 25.097 93.124 72.904 101.795l46.345 8.403c28.53 5.173 53.276 22.784 67.509 48.038v.009c16.803 29.806 16.553 65.758.423 94.955z" fill="#fff"/><path d="m358.444 398.345c-2.07 1.499-4.186 2.945-6.318 4.355-27.604 18.126-60.633 28.665-96.125 28.665v-182.281l34.511 6.256c28.532 5.176 53.27 22.784 67.505 48.04v.009c16.803 29.807 16.553 65.764.427 94.956z" fill="#d3d3d3"/></g><g><circle cx="256.001" cy="154.961" fill="#fff" r="24.241"/><path d="m280.244 154.96c0 13.39-10.853 24.244-24.244 24.244v-48.481c13.391 0 24.244 10.853 24.244 24.237z" fill="#d3d3d3"/></g><g><ellipse cx="256.001" cy="343.204" fill="#2b2a78" rx="24.241" ry="24.241" transform="matrix(.051 -.999 .999 .051 -99.711 581.521)"/><path d="m280.244 343.203c0 13.391-10.853 24.244-24.244 24.244v-48.481c13.391 0 24.244 10.853 24.244 24.237z" fill="#03002c"/><g><g><path d="m256 471.603c-57.59 0-111.732-22.427-152.455-63.149s-63.149-94.864-63.149-152.454 22.427-111.732 63.149-152.455 94.865-63.148 152.455-63.148 111.732 22.427 152.455 63.149 63.148 94.864 63.148 152.454-22.427 111.732-63.149 152.455-94.864 63.148-152.454 63.148zm0-386.206c-94.071 0-170.604 76.532-170.604 170.603s76.533 170.603 170.604 170.603 170.603-76.532 170.603-170.603-76.532-170.603-170.603-170.603z" fill="#ff76a4"/></g></g><path d="m426.603 256c0 94.071-76.532 170.603-170.603 170.603v45c57.59 0 111.732-22.427 152.455-63.149s63.148-94.864 63.148-152.454-22.427-111.732-63.149-152.455-94.864-63.148-152.454-63.148v45c94.071 0 170.603 76.532 170.603 170.603z" fill="#ff3666"/></g></g></g></svg>