<svg id="Layer_1" height="512" viewBox="0 0 512 512" width="512" xmlns="http://www.w3.org/2000/svg"><path d="m512 256c0-141.159-114.841-256-256-256s-256 114.841-256 256c0 139.212 111.697 252.818 250.176 255.926 1.938.049 3.879.074 5.824.074s3.886-.025 5.823-.074c138.48-3.108 250.177-116.714 250.177-255.926zm-480 0c0-123.514 100.486-224 224-224s224 100.486 224 224c0 60.333-23.985 115.163-62.911 155.479-8.997-31.029-26.903-59.063-51.679-80.411-14.827-12.775-31.673-22.741-49.699-29.607 25.813-18.603 42.651-48.916 42.651-83.091 0-56.443-45.92-102.363-102.362-102.363-56.443 0-102.363 45.92-102.363 102.363 0 34.175 16.839 64.489 42.651 83.091-18.026 6.866-34.872 16.832-49.699 29.607-24.776 21.348-42.682 49.381-51.679 80.41-38.925-40.316-62.91-95.145-62.91-155.478zm224 224c-1.634 0-3.262-.027-4.887-.063-47.651-1.156-92.503-19.21-127.601-51.296 13.633-61.999 68.1-106.179 132.488-106.179 64.387 0 118.854 44.18 132.487 106.179-35.101 32.086-79.953 50.14-127.6 51.296-1.626.036-3.253.063-4.887.063zm0-191.268c-38.798 0-70.363-31.564-70.363-70.362s31.565-70.363 70.363-70.363 70.362 31.565 70.362 70.363-31.564 70.362-70.362 70.362z"/></svg>